<?xml version="1.0" encoding="UTF-8"?>
<svg id="Layer_1" xmlns="http://www.w3.org/2000/svg" version="1.1" viewBox="0 0 500 500">
  <rect fill="#0f1115" x="0" y="0" width="500" height="500"/>
  <g>
    <path fill="#fde366" d="M281.28,195.32l16.28,28.02c.43.74-.1,1.66-.95,1.66l-68.09.32c-.88,0-1.42-.98-.93-1.72,5.66-8.58,13.57-15.93,22.58-20.87,9.19-5.04,19.64-8,30.17-7.97.39,0,.76.21.95.55Z"/>
    <path fill="#fde366" d="M335.08,294.64c.9,0,1.42,1,.91,1.74-.23.32-.42.6-.5.71-11.61,16.63-32.12,27.89-52.6,27.76-.39,0-.75-.21-.95-.55l-16.43-27.67c-.44-.74.09-1.67.95-1.67l68.62-.32Z"/>
    <path fill="#fde366" d="M285.46,196.53c-.46-.77.15-1.74,1.05-1.67,7.09.58,14.45,2.07,20.89,4.94,10.17,4.53,19.51,11.64,26.28,20.5.89,1.17,3.51,4.66,3.98,5.79.18.43.4.76.09,1.22l-15.89,27.64c-.42.74-1.48.74-1.91.01l-34.49-58.44Z"/>
    <path fill="#fde366" d="M258.17,229.71l-33.35,58.41c-.44.78-1.58.74-1.97-.07-7.58-15.85-8.38-35.98-1.92-52.28.53-1.33,2.64-6.2,3.37-7.07.57-.68.27-.71,1.58-.77.8-.04,6.7.11,7.49.08,7.92-.24,15.89.15,23.82.05.86-.01,1.4.91.98,1.65Z"/>
    <path fill="#fde366" d="M340.83,232c8.31,18.72,8.03,40.8-1.65,58.98-.19.35-.56.58-.96.59l-32.34.67c-.86.02-1.41-.91-.98-1.66l33.96-58.68c.45-.78,1.61-.72,1.98.11Z"/>
    <path fill="#fde366" d="M276.21,324.76c-20.68-1.76-39.37-13.28-50.25-30.94-.21-.34-.22-.77-.02-1.12l15.43-27.98c.42-.75,1.49-.77,1.93-.02l33.98,58.4c.45.78-.16,1.74-1.06,1.66Z"/>
    <g>
      <path fill="#fde366" d="M199.23,250.99c.73-7.86,2.51-15.64,5.3-23.03.27-.73-.25-1.5-1.03-1.5h-113.13c-.61,0-1.11.5-1.11,1.11v59.13c0,.61.5,1.11,1.11,1.11h112.75c.77,0,1.3-.77,1.03-1.5-2.7-7.32-4.36-15.11-4.81-23.18-.04,0-.07-.01-.11-.02v-12s0-.08,0-.12Z"/>
      <path fill="#fde366" d="M410.72,158.16v-.34c0-.61-.5-1.11-1.11-1.11h-64.6c-2.3,0-4.37-1.43-5.18-3.58l-11.51-30.54c-.16-.43-.58-.72-1.04-.72l-101.96.11c-.46,0-.87.28-1.03.71l-11.76,30.48c-.82,2.13-2.88,3.54-5.16,3.54h-28.58c-2.77,0-5.11-2.05-5.48-4.79-.4-2.92-.78-5.44-1.07-7.03-.1-.53-.55-.91-1.09-.91-5.1,0-30.17.05-34.33.06-.55,0-1.02.41-1.08.96,0,.06-.02.13-.03.2-.36,2.48-.56,4.24-.87,6.66-.35,2.77-2.7,4.85-5.49,4.85-10.29,0-33.68,0-38.98,0-.63,0-1.13.51-1.13,1.13v12.69s0,49.2,0,49.2c0,.61.5,1.11,1.11,1.11h116.53c.42,0,.8-.24.99-.62,3.33-6.72,7.55-12.99,12.65-18.51,44.69-48.44,125.39-28.06,141.24,35.82,14.92,60.12-38.75,114.66-99.16,100.44-24.39-5.74-44.5-22.26-55.16-43.94-.19-.38-.57-.62-.99-.62h-116.11c-.61,0-1.11.5-1.11,1.11v57.59c0,3.06,2.48,5.53,5.53,5.53h309.92c3.05,0,5.53-2.47,5.53-5.52l.46-181.6h0v-3.48l.02-8.9h-.02Z"/>
    </g>
  </g>
</svg>
